<?xml version="1.0" encoding="UTF-8" standalone="no"?>
<!-- Created with Inkscape (http://www.inkscape.org/) -->

<svg
   xmlns:dc="http://purl.org/dc/elements/1.1/"
   xmlns:cc="http://creativecommons.org/ns#"
   xmlns:rdf="http://www.w3.org/1999/02/22-rdf-syntax-ns#"
   xmlns:svg="http://www.w3.org/2000/svg"
   xmlns="http://www.w3.org/2000/svg"
   xmlns:sodipodi="http://sodipodi.sourceforge.net/DTD/sodipodi-0.dtd"
   xmlns:inkscape="http://www.inkscape.org/namespaces/inkscape"
   width="136.35307mm"
   height="153.32487mm"
   viewBox="0 0 136.35307 153.32487"
   version="1.1"
   id="svg8"
   inkscape:version="0.92.4 (5da689c313, 2019-01-14)"
   sodipodi:docname="senew.svg">
  <defs
     id="defs2" />
  <sodipodi:namedview
     id="base"
     pagecolor="#ffffff"
     bordercolor="#666666"
     borderopacity="1.0"
     inkscape:pageopacity="0.0"
     inkscape:pageshadow="2"
     inkscape:zoom="0.98994949"
     inkscape:cx="223.10827"
     inkscape:cy="290.683"
     inkscape:document-units="mm"
     inkscape:current-layer="g3911"
     showgrid="false"
     inkscape:window-width="1858"
     inkscape:window-height="1057"
     inkscape:window-x="-8"
     inkscape:window-y="-8"
     inkscape:window-maximized="1" />
  <metadata
     id="metadata5">
    <rdf:RDF>
      <cc:Work
         rdf:about="">
        <dc:format>image/svg+xml</dc:format>
        <dc:type
           rdf:resource="http://purl.org/dc/dcmitype/StillImage" />
        <dc:title></dc:title>
      </cc:Work>
    </rdf:RDF>
  </metadata>
  <g
     inkscape:label="Layer 1"
     inkscape:groupmode="layer"
     id="layer1"
     transform="translate(-7.2072868,-61.031233)">
    <g
       id="g3911">
      <g
         transform="matrix(0.20052383,0,0,-0.20052383,143.56036,127.11564)"
         id="g3723">
        <path
           inkscape:connector-curvature="0"
           id="path3725"
           style="fill:#2cffb5;fill-opacity:1;fill-rule:nonzero;stroke:none"
           d="m 0,0 v 77.837 l -67.409,38.919 -67.409,-38.919 V 0 l 67.409,-38.918 z" />
      </g>
      <g
         transform="matrix(0.20052383,0,0,-0.20052383,125.22007,102.88799)"
         id="g3727">
        <path
           inkscape:connector-curvature="0"
           id="path3729"
           style="fill:#2cffb5;fill-opacity:1;fill-rule:nonzero;stroke:none"
           d="M 0,0 V 47.86 L -41.448,71.79 -82.896,47.86 V 0 l 41.448,-23.93 z" />
      </g>
      <g
         transform="matrix(0.20052383,0,0,-0.20052383,113.58066,115.75344)"
         id="g3731">
        <path
           inkscape:connector-curvature="0"
           id="path3733"
           style="fill:#2cffb5;fill-opacity:1;fill-rule:nonzero;stroke:none"
           d="m 0,0 v 33.361 l -28.892,16.68 -28.89,-16.68 V 0 l 28.89,-16.68 z" />
      </g>
      <g
         transform="matrix(0.20052383,0,0,-0.20052383,7.2072868,145.27609)"
         id="g3735">
        <path
           inkscape:connector-curvature="0"
           id="path3737"
           style="fill:#0d0607;fill-opacity:1;fill-rule:nonzero;stroke:none"
           d="m 0,0 v -77.837 l 67.409,-38.919 67.409,38.919 V 0 L 67.409,38.918 Z" />
      </g>
      <g
         transform="matrix(0.20052383,0,0,-0.20052383,25.547577,169.50372)"
         id="g3739">
        <path
           inkscape:connector-curvature="0"
           id="path3741"
           style="fill:#2cffb5;fill-opacity:1;fill-rule:nonzero;stroke:none"
           d="m 0,0 v -47.86 l 41.448,-23.93 41.447,23.93 V 0 L 41.448,23.93 Z" />
      </g>
      <g
         transform="matrix(0.20052383,0,0,-0.20052383,37.186963,156.63828)"
         id="g3743">
        <path
           inkscape:connector-curvature="0"
           id="path3745"
           style="fill:#2cffb5;fill-opacity:1;fill-rule:nonzero;stroke:none"
           d="m 0,0 v -33.361 l 28.891,-16.68 28.891,16.68 V 0 L 28.891,16.68 Z" />
      </g>
      <g
         transform="matrix(0.20052383,0,0,-0.20052383,58.976805,61.031233)"
         id="g3747">
        <path
           inkscape:connector-curvature="0"
           id="path3749"
           style="fill:#2cffb5;fill-opacity:1;fill-rule:nonzero;stroke:none"
           d="m 0,0 v -48.616 l 129.378,-74.696 42.103,24.308 z" />
      </g>
      <g
         transform="matrix(0.20052383,0,0,-0.20052383,86.129656,88.026233)"
         id="g3751">
        <path
           inkscape:connector-curvature="0"
           id="path3753"
           style="fill:#2cffb5;fill-opacity:1;fill-rule:nonzero;stroke:none"
           d="m 0,0 v -155.926 l -141.815,-81.877 -141.815,81.877 V 7.828 l 135.409,78.179 v 48.615 L -325.733,32.136 v -212.37 l 183.918,-106.185 183.918,106.185 V 24.308 Z" />
      </g>
      <g
         transform="matrix(0.20052383,0,0,-0.20052383,57.692389,191.62695)"
         id="g3755">
        <path
           inkscape:connector-curvature="0"
           id="path3757"
           style="fill:#2cffb5;fill-opacity:1;fill-rule:nonzero;stroke:none"
           d="M 0,0 42.103,24.309 V 173.611 L 0,197.919 Z" />
      </g>
      <g
         transform="matrix(0.20052383,0,0,-0.20052383,94.57223,129.18541)"
         id="g3759">
        <path
           inkscape:connector-curvature="0"
           id="path3761"
           style="fill:#2cffb5;fill-opacity:1;fill-rule:nonzero;stroke:none"
           d="M 0,0 -177.418,-102.433 -135.315,-126.74 0,-48.616 141.815,-130.493 V -294.248 L 0,-376.125 -135.208,-298.062 -177.311,-322.37 0,-424.741 183.918,-318.555 v 212.37 z" />
      </g>
      <g
         transform="matrix(0.20052383,0,0,-0.20052383,57.692289,191.62695)"
         id="g3763">
        <path
           inkscape:connector-curvature="0"
           id="path3765"
           style="fill:#2cffb5;fill-opacity:1;fill-rule:nonzero;stroke:none"
           d="M 0,0 42.103,24.309 V 173.611 L 0,197.919 Z" />
      </g>
      <g
         transform="matrix(0.20052383,0,0,-0.20052383,94.57223,129.18541)"
         id="g3767">
        <path
           inkscape:connector-curvature="0"
           id="path3769"
           style="fill:#2cffb5;fill-opacity:1;fill-rule:nonzero;stroke:none"
           d="M 0,0 -177.418,-102.433 -135.315,-126.74 0,-48.616 141.815,-130.493 V -294.248 L 0,-376.125 -135.208,-298.062 -177.311,-322.37 0,-424.741 183.918,-318.555 v 212.37 z" />
      </g>
      <path
         style="fill:#ffffff;stroke:none;stroke-width:0.26499999;stroke-linecap:butt;stroke-linejoin:miter;stroke-miterlimit:4;stroke-dasharray:none;stroke-opacity:1"
         d="m 94.572134,138.93407 -27.13388,15.66573 -1.30331,2.21401 v 29.93861 l 1.32476,2.20152 27.11243,15.65349 28.437286,-16.41828 v -32.83679 z"
         id="path4726"
         inkscape:connector-curvature="0" />
      <g
         aria-label="E"
         style="font-variant:normal;font-weight:normal;font-stretch:normal;font-size:57.80807114px;font-family:'Myriad Pro';-inkscape-font-specification:MyriadPro-Regular;writing-mode:lr-tb;fill:#000000;fill-opacity:1;fill-rule:nonzero;stroke:none;stroke-width:0.20052384"
         id="text3775">
        <path
           d="M 106.53338,191.8875 H 78.843089 v -42.02941 h 27.690291 v 4.96788 H 84.431955 v 11.51646 h 22.101425 v 4.96788 H 84.431955 v 15.60931 h 22.101425 z"
           style="stroke-width:0.20052384"
           id="path3913" />
      </g>
      <path
         style="fill:#ffffff;stroke:none;stroke-width:0.26458332px;stroke-linecap:butt;stroke-linejoin:miter;stroke-opacity:1"
         d="M 56.407814,70.77978 29.255082,86.456532 V 119.29311 L 57.692368,135.7114 86.129655,119.29311 V 88.026234 L 84.920176,85.758227 58.976804,70.779899 Z"
         id="path4743"
         inkscape:connector-curvature="0" />
      <g
         aria-label="S"
         style="font-style:normal;font-weight:normal;font-size:56.14675522px;line-height:1.25;font-family:sans-serif;letter-spacing:0px;word-spacing:0px;fill:#000000;fill-opacity:1;stroke:none;stroke-width:1.40366888"
         id="text3881"
         transform="translate(0.53453906,-0.53453906)">
        <path
           d="m 72.523033,110.60584 q 0,2.38515 -1.124032,4.71545 -1.096616,2.33031 -3.097941,3.94782 -2.193233,1.75459 -5.126681,2.74154 -2.906033,0.98696 -7.018345,0.98696 -4.41388,0 -7.950468,-0.82246 -3.509172,-0.82247 -7.155421,-2.43997 v -6.79903 h 0.383815 q 3.097942,2.57705 7.155422,3.97524 4.05748,1.39818 7.621483,1.39818 5.044435,0 7.840807,-1.89166 2.823787,-1.89166 2.823787,-5.04443 0,-2.71413 -1.343355,-4.00265 -1.31594,-1.28853 -4.030065,-2.00133 -2.056156,-0.54831 -4.468711,-0.90471 -2.385141,-0.3564 -5.071851,-0.90471 -5.428251,-1.15144 -8.06013,-3.920399 -2.604464,-2.796371 -2.604464,-7.265083 0,-5.126681 4.331635,-8.389114 4.331634,-3.289849 10.993578,-3.289849 4.304219,0 7.895638,0.822462 3.591418,0.822462 6.360374,2.02874 v 6.415205 h -0.383815 q -2.33031,-1.973909 -6.141052,-3.262433 -3.783326,-1.31594 -7.75856,-1.31594 -4.35905,0 -7.018344,1.809417 -2.63188,1.809417 -2.63188,4.66062 0,2.549633 1.31594,4.002649 1.31594,1.453017 4.633204,2.220648 1.754586,0.383816 4.989604,0.932124 3.235018,0.548308 5.483082,1.124033 4.550957,1.20628 6.853852,3.64625 2.302894,2.43997 2.302894,6.82643 z"
           style="stroke-width:1.40366888"
           id="path3916"
           inkscape:connector-curvature="0" />
      </g>
    </g>
  </g>
</svg>
